<mxfile host="app.diagrams.net" modified="2023-12-25T08:45:43.964Z" agent="Mozilla/5.0 (Macintosh; Intel Mac OS X 10_15_7) AppleWebKit/537.36 (KHTML, like Gecko) Chrome/120.0.0.0 Safari/537.36" etag="hsuSUM0eS8ehVaLSBftC" version="22.1.11" type="device">
  <diagram name="第 1 页" id="9EmzviJnHAnuwAFs3RsF">
    <mxGraphModel dx="954" dy="545" grid="1" gridSize="10" guides="1" tooltips="1" connect="1" arrows="1" fold="1" page="1" pageScale="1" pageWidth="827" pageHeight="1169" math="0" shadow="0">
      <root>
        <mxCell id="0" />
        <mxCell id="1" parent="0" />
        <mxCell id="j6xaSFRigTr1SaJ4AjRL-3" value="Rendering Engine" style="rounded=0;whiteSpace=wrap;html=1;fontSize=16;fillColor=#fff2cc;strokeColor=#d6b656;" parent="1" vertex="1">
          <mxGeometry x="40" y="760" width="560" height="60" as="geometry" />
        </mxCell>
        <mxCell id="j6xaSFRigTr1SaJ4AjRL-5" value="Flutter" style="rounded=0;whiteSpace=wrap;html=1;fontSize=16;fillColor=#dae8fc;strokeColor=#6c8ebf;" parent="1" vertex="1">
          <mxGeometry x="40" y="440" width="560" height="60" as="geometry" />
        </mxCell>
        <mxCell id="j6xaSFRigTr1SaJ4AjRL-32" style="edgeStyle=orthogonalEdgeStyle;rounded=0;orthogonalLoop=1;jettySize=auto;html=1;" parent="1" source="j6xaSFRigTr1SaJ4AjRL-4" target="j6xaSFRigTr1SaJ4AjRL-18" edge="1">
          <mxGeometry relative="1" as="geometry" />
        </mxCell>
        <mxCell id="j6xaSFRigTr1SaJ4AjRL-33" value="HWND" style="edgeLabel;html=1;align=center;verticalAlign=middle;resizable=0;points=[];fontSize=14;" parent="j6xaSFRigTr1SaJ4AjRL-32" vertex="1" connectable="0">
          <mxGeometry x="-0.06" y="1" relative="1" as="geometry">
            <mxPoint x="-1" y="3" as="offset" />
          </mxGeometry>
        </mxCell>
        <mxCell id="j6xaSFRigTr1SaJ4AjRL-43" style="edgeStyle=orthogonalEdgeStyle;rounded=0;orthogonalLoop=1;jettySize=auto;html=1;" parent="1" source="j6xaSFRigTr1SaJ4AjRL-4" target="j6xaSFRigTr1SaJ4AjRL-15" edge="1">
          <mxGeometry relative="1" as="geometry" />
        </mxCell>
        <mxCell id="WFNZBzSrOpApc0q9gBdR-5" value="HWND" style="edgeLabel;html=1;align=center;verticalAlign=middle;resizable=0;points=[];fontSize=14;" parent="j6xaSFRigTr1SaJ4AjRL-43" vertex="1" connectable="0">
          <mxGeometry x="-0.52" y="2" relative="1" as="geometry">
            <mxPoint x="2" y="-26" as="offset" />
          </mxGeometry>
        </mxCell>
        <mxCell id="j6xaSFRigTr1SaJ4AjRL-4" value="Windows" style="rounded=1;whiteSpace=wrap;html=1;fontSize=16;fillColor=#d5e8d4;strokeColor=#82b366;" parent="1" vertex="1">
          <mxGeometry x="340" y="600" width="120" height="60" as="geometry" />
        </mxCell>
        <mxCell id="j6xaSFRigTr1SaJ4AjRL-27" style="edgeStyle=orthogonalEdgeStyle;rounded=0;orthogonalLoop=1;jettySize=auto;html=1;entryX=0;entryY=0;entryDx=0;entryDy=0;" parent="1" source="j6xaSFRigTr1SaJ4AjRL-10" target="WFNZBzSrOpApc0q9gBdR-34" edge="1">
          <mxGeometry relative="1" as="geometry" />
        </mxCell>
        <mxCell id="j6xaSFRigTr1SaJ4AjRL-28" value="CAEAGLLayer&lt;br&gt;CAMetalLayer" style="edgeLabel;html=1;align=center;verticalAlign=middle;resizable=0;points=[];fontSize=14;" parent="j6xaSFRigTr1SaJ4AjRL-27" vertex="1" connectable="0">
          <mxGeometry x="-0.14" y="-2" relative="1" as="geometry">
            <mxPoint x="2" y="7" as="offset" />
          </mxGeometry>
        </mxCell>
        <mxCell id="j6xaSFRigTr1SaJ4AjRL-44" style="edgeStyle=orthogonalEdgeStyle;rounded=0;orthogonalLoop=1;jettySize=auto;html=1;entryX=0;entryY=1;entryDx=0;entryDy=0;" parent="1" source="j6xaSFRigTr1SaJ4AjRL-10" target="WFNZBzSrOpApc0q9gBdR-29" edge="1">
          <mxGeometry relative="1" as="geometry" />
        </mxCell>
        <mxCell id="j6xaSFRigTr1SaJ4AjRL-47" value="UIView" style="edgeLabel;html=1;align=center;verticalAlign=middle;resizable=0;points=[];fontSize=14;" parent="j6xaSFRigTr1SaJ4AjRL-44" vertex="1" connectable="0">
          <mxGeometry x="-0.06" y="2" relative="1" as="geometry">
            <mxPoint x="2" y="17" as="offset" />
          </mxGeometry>
        </mxCell>
        <mxCell id="WFNZBzSrOpApc0q9gBdR-1" value="UiKitView" style="edgeLabel;html=1;align=center;verticalAlign=middle;resizable=0;points=[];fontSize=14;" parent="j6xaSFRigTr1SaJ4AjRL-44" vertex="1" connectable="0">
          <mxGeometry x="0.58" y="-1" relative="1" as="geometry">
            <mxPoint y="19" as="offset" />
          </mxGeometry>
        </mxCell>
        <mxCell id="j6xaSFRigTr1SaJ4AjRL-10" value="iOS / macOS" style="rounded=1;whiteSpace=wrap;html=1;fontSize=16;fillColor=#d5e8d4;strokeColor=#82b366;" parent="1" vertex="1">
          <mxGeometry x="40" y="600" width="120" height="60" as="geometry" />
        </mxCell>
        <mxCell id="j6xaSFRigTr1SaJ4AjRL-30" style="edgeStyle=orthogonalEdgeStyle;rounded=0;orthogonalLoop=1;jettySize=auto;html=1;entryX=1;entryY=0;entryDx=0;entryDy=0;" parent="1" source="j6xaSFRigTr1SaJ4AjRL-12" target="WFNZBzSrOpApc0q9gBdR-34" edge="1">
          <mxGeometry relative="1" as="geometry" />
        </mxCell>
        <mxCell id="j6xaSFRigTr1SaJ4AjRL-31" value="SurfaceTexture&lt;br&gt;SurfaceView&lt;br&gt;TextureView" style="edgeLabel;html=1;align=center;verticalAlign=middle;resizable=0;points=[];fontSize=14;" parent="j6xaSFRigTr1SaJ4AjRL-30" vertex="1" connectable="0">
          <mxGeometry x="0.06" y="-1" relative="1" as="geometry">
            <mxPoint x="1" y="-3" as="offset" />
          </mxGeometry>
        </mxCell>
        <mxCell id="j6xaSFRigTr1SaJ4AjRL-45" style="edgeStyle=orthogonalEdgeStyle;rounded=0;orthogonalLoop=1;jettySize=auto;html=1;entryX=1;entryY=1;entryDx=0;entryDy=0;" parent="1" source="j6xaSFRigTr1SaJ4AjRL-12" target="WFNZBzSrOpApc0q9gBdR-29" edge="1">
          <mxGeometry relative="1" as="geometry" />
        </mxCell>
        <mxCell id="j6xaSFRigTr1SaJ4AjRL-46" value="FlutterActivity" style="edgeLabel;html=1;align=center;verticalAlign=middle;resizable=0;points=[];fontSize=14;" parent="j6xaSFRigTr1SaJ4AjRL-45" vertex="1" connectable="0">
          <mxGeometry x="-0.1" y="-1" relative="1" as="geometry">
            <mxPoint x="-1" y="15" as="offset" />
          </mxGeometry>
        </mxCell>
        <mxCell id="WFNZBzSrOpApc0q9gBdR-3" value="AndroidViewSurface" style="edgeLabel;html=1;align=center;verticalAlign=middle;resizable=0;points=[];fontSize=14;" parent="j6xaSFRigTr1SaJ4AjRL-45" vertex="1" connectable="0">
          <mxGeometry x="0.5" relative="1" as="geometry">
            <mxPoint y="15" as="offset" />
          </mxGeometry>
        </mxCell>
        <mxCell id="j6xaSFRigTr1SaJ4AjRL-12" value="Android" style="rounded=1;whiteSpace=wrap;html=1;fontSize=16;fillColor=#d5e8d4;strokeColor=#82b366;" parent="1" vertex="1">
          <mxGeometry x="180" y="600" width="120" height="60" as="geometry" />
        </mxCell>
        <mxCell id="j6xaSFRigTr1SaJ4AjRL-38" value="" style="rounded=0;whiteSpace=wrap;html=1;fillColor=#dae8fc;strokeColor=#6c8ebf;" parent="1" vertex="1">
          <mxGeometry x="40" y="40" width="220" height="320" as="geometry" />
        </mxCell>
        <mxCell id="j6xaSFRigTr1SaJ4AjRL-39" value="Flutter" style="text;html=1;strokeColor=none;fillColor=none;align=center;verticalAlign=middle;whiteSpace=wrap;rounded=0;fontSize=16;" parent="1" vertex="1">
          <mxGeometry x="40" y="40" width="70" height="40" as="geometry" />
        </mxCell>
        <mxCell id="j6xaSFRigTr1SaJ4AjRL-41" value="" style="rounded=0;whiteSpace=wrap;html=1;fontSize=16;fillColor=#d5e8d4;strokeColor=#82b366;" parent="1" vertex="1">
          <mxGeometry x="50" y="80" width="200" height="120" as="geometry" />
        </mxCell>
        <mxCell id="j6xaSFRigTr1SaJ4AjRL-40" value="Renderer" style="rounded=0;whiteSpace=wrap;html=1;fontSize=16;fillColor=#fff2cc;strokeColor=#d6b656;" parent="1" vertex="1">
          <mxGeometry x="60" y="90" width="180" height="100" as="geometry" />
        </mxCell>
        <mxCell id="WFNZBzSrOpApc0q9gBdR-4" value="Native" style="text;html=1;strokeColor=none;fillColor=none;align=center;verticalAlign=middle;whiteSpace=wrap;rounded=0;fontSize=16;" parent="1" vertex="1">
          <mxGeometry x="60" y="90" width="70" height="40" as="geometry" />
        </mxCell>
        <mxCell id="j6xaSFRigTr1SaJ4AjRL-15" value="1" style="rounded=0;whiteSpace=wrap;html=1;fontSize=16;fontColor=none;noLabel=1;strokeColor=none;fillColor=none;" parent="1" vertex="1">
          <mxGeometry x="380" y="470" width="40" height="30" as="geometry" />
        </mxCell>
        <mxCell id="j6xaSFRigTr1SaJ4AjRL-18" value="1" style="rounded=0;whiteSpace=wrap;html=1;fontSize=16;fontColor=none;noLabel=1;strokeColor=none;fillColor=none;" parent="1" vertex="1">
          <mxGeometry x="380" y="760" width="40" height="30" as="geometry" />
        </mxCell>
        <mxCell id="WFNZBzSrOpApc0q9gBdR-7" value="Mobile&amp;nbsp;(Navigate)" style="text;html=1;strokeColor=none;fillColor=none;align=center;verticalAlign=middle;whiteSpace=wrap;rounded=0;fontSize=16;fontStyle=2" parent="1" vertex="1">
          <mxGeometry x="40" y="360" width="220" height="40" as="geometry" />
        </mxCell>
        <mxCell id="WFNZBzSrOpApc0q9gBdR-8" value="" style="rounded=0;whiteSpace=wrap;html=1;fillColor=#d5e8d4;strokeColor=#82b366;" parent="1" vertex="1">
          <mxGeometry x="280" y="160" width="320" height="200" as="geometry" />
        </mxCell>
        <mxCell id="WFNZBzSrOpApc0q9gBdR-9" value="Native" style="text;html=1;strokeColor=none;fillColor=none;align=center;verticalAlign=middle;whiteSpace=wrap;rounded=0;fontSize=16;" parent="1" vertex="1">
          <mxGeometry x="280" y="160" width="70" height="40" as="geometry" />
        </mxCell>
        <mxCell id="WFNZBzSrOpApc0q9gBdR-10" value="Flutter Widget" style="rounded=0;whiteSpace=wrap;html=1;fontSize=16;fillColor=#dae8fc;strokeColor=#6c8ebf;" parent="1" vertex="1">
          <mxGeometry x="450" y="200" width="140" height="70" as="geometry" />
        </mxCell>
        <mxCell id="WFNZBzSrOpApc0q9gBdR-11" value="Renderer" style="rounded=0;whiteSpace=wrap;html=1;fontSize=16;fillColor=#fff2cc;strokeColor=#d6b656;" parent="1" vertex="1">
          <mxGeometry x="290" y="200" width="150" height="150" as="geometry" />
        </mxCell>
        <mxCell id="WFNZBzSrOpApc0q9gBdR-13" value="Desktop / Web" style="text;html=1;strokeColor=none;fillColor=none;align=center;verticalAlign=middle;whiteSpace=wrap;rounded=0;fontSize=16;fontStyle=2" parent="1" vertex="1">
          <mxGeometry x="280" y="360" width="320" height="40" as="geometry" />
        </mxCell>
        <mxCell id="WFNZBzSrOpApc0q9gBdR-14" value="Flutter Widget" style="rounded=0;whiteSpace=wrap;html=1;fontSize=16;fillColor=#dae8fc;strokeColor=#6c8ebf;" parent="1" vertex="1">
          <mxGeometry x="50" y="290" width="200" height="60" as="geometry" />
        </mxCell>
        <mxCell id="WFNZBzSrOpApc0q9gBdR-21" style="edgeStyle=orthogonalEdgeStyle;rounded=0;orthogonalLoop=1;jettySize=auto;html=1;" parent="1" source="WFNZBzSrOpApc0q9gBdR-25" target="WFNZBzSrOpApc0q9gBdR-27" edge="1">
          <mxGeometry relative="1" as="geometry" />
        </mxCell>
        <mxCell id="WFNZBzSrOpApc0q9gBdR-22" value="WASM" style="edgeLabel;html=1;align=center;verticalAlign=middle;resizable=0;points=[];fontSize=14;" parent="WFNZBzSrOpApc0q9gBdR-21" vertex="1" connectable="0">
          <mxGeometry x="-0.06" y="1" relative="1" as="geometry">
            <mxPoint x="-1" y="3" as="offset" />
          </mxGeometry>
        </mxCell>
        <mxCell id="WFNZBzSrOpApc0q9gBdR-23" style="edgeStyle=orthogonalEdgeStyle;rounded=0;orthogonalLoop=1;jettySize=auto;html=1;" parent="1" source="WFNZBzSrOpApc0q9gBdR-25" target="WFNZBzSrOpApc0q9gBdR-26" edge="1">
          <mxGeometry relative="1" as="geometry" />
        </mxCell>
        <mxCell id="WFNZBzSrOpApc0q9gBdR-24" value="HTML" style="edgeLabel;html=1;align=center;verticalAlign=middle;resizable=0;points=[];fontSize=14;" parent="WFNZBzSrOpApc0q9gBdR-23" vertex="1" connectable="0">
          <mxGeometry x="-0.52" y="2" relative="1" as="geometry">
            <mxPoint x="2" y="-26" as="offset" />
          </mxGeometry>
        </mxCell>
        <mxCell id="WFNZBzSrOpApc0q9gBdR-25" value="Web" style="rounded=1;whiteSpace=wrap;html=1;fontSize=16;fillColor=#d5e8d4;strokeColor=#82b366;" parent="1" vertex="1">
          <mxGeometry x="480" y="600" width="120" height="60" as="geometry" />
        </mxCell>
        <mxCell id="WFNZBzSrOpApc0q9gBdR-26" value="&amp;lt;iframe&amp;gt;" style="rounded=0;whiteSpace=wrap;html=1;fontSize=14;fontColor=default;strokeColor=none;fillColor=none;fontStyle=2" parent="1" vertex="1">
          <mxGeometry x="500" y="470" width="80" height="30" as="geometry" />
        </mxCell>
        <mxCell id="WFNZBzSrOpApc0q9gBdR-27" value="&amp;lt;canvas&amp;gt;" style="rounded=0;whiteSpace=wrap;html=1;fontSize=14;fontColor=default;strokeColor=none;fillColor=none;fontStyle=2" parent="1" vertex="1">
          <mxGeometry x="500" y="760" width="80" height="30" as="geometry" />
        </mxCell>
        <mxCell id="WFNZBzSrOpApc0q9gBdR-29" value="Platform Views" style="text;html=1;strokeColor=none;fillColor=none;align=center;verticalAlign=middle;whiteSpace=wrap;rounded=0;fontSize=14;fontStyle=2" parent="1" vertex="1">
          <mxGeometry x="100" y="470" width="140" height="30" as="geometry" />
        </mxCell>
        <mxCell id="WFNZBzSrOpApc0q9gBdR-32" value="Flutter Widget" style="rounded=0;whiteSpace=wrap;html=1;fontSize=16;fillColor=#dae8fc;strokeColor=#6c8ebf;" parent="1" vertex="1">
          <mxGeometry x="50" y="220" width="200" height="60" as="geometry" />
        </mxCell>
        <mxCell id="WFNZBzSrOpApc0q9gBdR-33" value="Flutter Widget" style="rounded=0;whiteSpace=wrap;html=1;fontSize=16;fillColor=#dae8fc;strokeColor=#6c8ebf;" parent="1" vertex="1">
          <mxGeometry x="450" y="280" width="140" height="70" as="geometry" />
        </mxCell>
        <mxCell id="WFNZBzSrOpApc0q9gBdR-34" value="Offscreen Render" style="text;html=1;strokeColor=none;fillColor=none;align=center;verticalAlign=middle;whiteSpace=wrap;rounded=0;fontSize=14;fontStyle=2" parent="1" vertex="1">
          <mxGeometry x="100" y="760" width="140" height="30" as="geometry" />
        </mxCell>
      </root>
    </mxGraphModel>
  </diagram>
</mxfile>
